<svg xmlns="http://www.w3.org/2000/svg" width="256" height="384" viewBox="0 0 256 384" shape-rendering="crispEdges">
  <rect x="64" y="0" width="16" height="16" fill="#4e3412"/>
  <rect x="80" y="0" width="16" height="16" fill="#4e3412"/>
  <rect x="96" y="0" width="16" height="16" fill="#4e3412"/>
  <rect x="112" y="0" width="16" height="16" fill="#4e3412"/>
  <rect x="128" y="0" width="16" height="16" fill="#4e3412"/>
  <rect x="144" y="0" width="16" height="16" fill="#4e3412"/>
  <rect x="160" y="0" width="16" height="16" fill="#4e3412"/>
  <rect x="176" y="0" width="16" height="16" fill="#4e3412"/>
  <rect x="48" y="16" width="16" height="16" fill="#4e3412"/>
  <rect x="64" y="16" width="16" height="16" fill="#4e3412"/>
  <rect x="80" y="16" width="16" height="16" fill="#7a5a20"/>
  <rect x="96" y="16" width="16" height="16" fill="#7a5a20"/>
  <rect x="112" y="16" width="16" height="16" fill="#7a5a20"/>
  <rect x="128" y="16" width="16" height="16" fill="#7a5a20"/>
  <rect x="144" y="16" width="16" height="16" fill="#7a5a20"/>
  <rect x="160" y="16" width="16" height="16" fill="#7a5a20"/>
  <rect x="176" y="16" width="16" height="16" fill="#4e3412"/>
  <rect x="192" y="16" width="16" height="16" fill="#4e3412"/>
  <rect x="48" y="32" width="16" height="16" fill="#4e3412"/>
  <rect x="64" y="32" width="16" height="16" fill="#4e3412"/>
  <rect x="80" y="32" width="16" height="16" fill="#7a5a20"/>
  <rect x="96" y="32" width="16" height="16" fill="#7a5a20"/>
  <rect x="112" y="32" width="16" height="16" fill="#7a5a20"/>
  <rect x="128" y="32" width="16" height="16" fill="#7a5a20"/>
  <rect x="144" y="32" width="16" height="16" fill="#7a5a20"/>
  <rect x="160" y="32" width="16" height="16" fill="#7a5a20"/>
  <rect x="176" y="32" width="16" height="16" fill="#4e3412"/>
  <rect x="192" y="32" width="16" height="16" fill="#4e3412"/>
  <rect x="32" y="48" width="16" height="16" fill="#1c1008"/>
  <rect x="48" y="48" width="16" height="16" fill="#1c1008"/>
  <rect x="64" y="48" width="16" height="16" fill="#1c1008"/>
  <rect x="80" y="48" width="16" height="16" fill="#1c1008"/>
  <rect x="96" y="48" width="16" height="16" fill="#1c1008"/>
  <rect x="112" y="48" width="16" height="16" fill="#1c1008"/>
  <rect x="128" y="48" width="16" height="16" fill="#1c1008"/>
  <rect x="144" y="48" width="16" height="16" fill="#1c1008"/>
  <rect x="160" y="48" width="16" height="16" fill="#1c1008"/>
  <rect x="176" y="48" width="16" height="16" fill="#1c1008"/>
  <rect x="192" y="48" width="16" height="16" fill="#1c1008"/>
  <rect x="208" y="48" width="16" height="16" fill="#1c1008"/>
  <rect x="80" y="64" width="16" height="16" fill="#f5c98a"/>
  <rect x="96" y="64" width="16" height="16" fill="#f5c98a"/>
  <rect x="112" y="64" width="16" height="16" fill="#f5c98a"/>
  <rect x="128" y="64" width="16" height="16" fill="#f5c98a"/>
  <rect x="144" y="64" width="16" height="16" fill="#f5c98a"/>
  <rect x="160" y="64" width="16" height="16" fill="#f5c98a"/>
  <rect x="80" y="80" width="16" height="16" fill="#f5c98a"/>
  <rect x="96" y="80" width="16" height="16" fill="#1c1008"/>
  <rect x="112" y="80" width="16" height="16" fill="#f5c98a"/>
  <rect x="128" y="80" width="16" height="16" fill="#f5c98a"/>
  <rect x="144" y="80" width="16" height="16" fill="#1c1008"/>
  <rect x="160" y="80" width="16" height="16" fill="#f5c98a"/>
  <rect x="80" y="96" width="16" height="16" fill="#f5c98a"/>
  <rect x="96" y="96" width="16" height="16" fill="#f5c98a"/>
  <rect x="112" y="96" width="16" height="16" fill="#f5c98a"/>
  <rect x="128" y="96" width="16" height="16" fill="#f5c98a"/>
  <rect x="144" y="96" width="16" height="16" fill="#f5c98a"/>
  <rect x="160" y="96" width="16" height="16" fill="#f5c98a"/>
  <rect x="48" y="112" width="16" height="16" fill="#1c1008"/>
  <rect x="64" y="112" width="16" height="16" fill="#9b7535"/>
  <rect x="80" y="112" width="16" height="16" fill="#9b7535"/>
  <rect x="96" y="112" width="16" height="16" fill="#f0eeea"/>
  <rect x="112" y="112" width="16" height="16" fill="#8b1a1a"/>
  <rect x="128" y="112" width="16" height="16" fill="#8b1a1a"/>
  <rect x="144" y="112" width="16" height="16" fill="#f0eeea"/>
  <rect x="160" y="112" width="16" height="16" fill="#9b7535"/>
  <rect x="176" y="112" width="16" height="16" fill="#9b7535"/>
  <rect x="192" y="112" width="16" height="16" fill="#1c1008"/>
  <rect x="32" y="128" width="16" height="16" fill="#1c1008"/>
  <rect x="48" y="128" width="16" height="16" fill="#9b7535"/>
  <rect x="64" y="128" width="16" height="16" fill="#9b7535"/>
  <rect x="80" y="128" width="16" height="16" fill="#9b7535"/>
  <rect x="96" y="128" width="16" height="16" fill="#f0eeea"/>
  <rect x="112" y="128" width="16" height="16" fill="#8b1a1a"/>
  <rect x="128" y="128" width="16" height="16" fill="#8b1a1a"/>
  <rect x="144" y="128" width="16" height="16" fill="#f0eeea"/>
  <rect x="160" y="128" width="16" height="16" fill="#9b7535"/>
  <rect x="176" y="128" width="16" height="16" fill="#9b7535"/>
  <rect x="192" y="128" width="16" height="16" fill="#9b7535"/>
  <rect x="208" y="128" width="16" height="16" fill="#1c1008"/>
  <rect x="32" y="144" width="16" height="16" fill="#1c1008"/>
  <rect x="48" y="144" width="16" height="16" fill="#9b7535"/>
  <rect x="64" y="144" width="16" height="16" fill="#9b7535"/>
  <rect x="80" y="144" width="16" height="16" fill="#9b7535"/>
  <rect x="96" y="144" width="16" height="16" fill="#9b7535"/>
  <rect x="112" y="144" width="16" height="16" fill="#9b7535"/>
  <rect x="128" y="144" width="16" height="16" fill="#9b7535"/>
  <rect x="144" y="144" width="16" height="16" fill="#9b7535"/>
  <rect x="160" y="144" width="16" height="16" fill="#9b7535"/>
  <rect x="176" y="144" width="16" height="16" fill="#c49a3c"/>
  <rect x="192" y="144" width="16" height="16" fill="#9b7535"/>
  <rect x="208" y="144" width="16" height="16" fill="#1c1008"/>
  <rect x="32" y="160" width="16" height="16" fill="#1c1008"/>
  <rect x="48" y="160" width="16" height="16" fill="#9b7535"/>
  <rect x="64" y="160" width="16" height="16" fill="#9b7535"/>
  <rect x="80" y="160" width="16" height="16" fill="#9b7535"/>
  <rect x="96" y="160" width="16" height="16" fill="#9b7535"/>
  <rect x="112" y="160" width="16" height="16" fill="#9b7535"/>
  <rect x="128" y="160" width="16" height="16" fill="#9b7535"/>
  <rect x="144" y="160" width="16" height="16" fill="#9b7535"/>
  <rect x="160" y="160" width="16" height="16" fill="#c49a3c"/>
  <rect x="176" y="160" width="16" height="16" fill="#9b7535"/>
  <rect x="192" y="160" width="16" height="16" fill="#1c1008"/>
  <rect x="32" y="176" width="16" height="16" fill="#1c1008"/>
  <rect x="48" y="176" width="16" height="16" fill="#9b7535"/>
  <rect x="64" y="176" width="16" height="16" fill="#9b7535"/>
  <rect x="80" y="176" width="16" height="16" fill="#9b7535"/>
  <rect x="96" y="176" width="16" height="16" fill="#9b7535"/>
  <rect x="112" y="176" width="16" height="16" fill="#9b7535"/>
  <rect x="128" y="176" width="16" height="16" fill="#9b7535"/>
  <rect x="144" y="176" width="16" height="16" fill="#c49a3c"/>
  <rect x="160" y="176" width="16" height="16" fill="#1c1008"/>
  <rect x="192" y="176" width="16" height="16" fill="#aaaaaa"/>
  <rect x="208" y="176" width="16" height="16" fill="#aaaaaa"/>
  <rect x="32" y="192" width="16" height="16" fill="#1c1008"/>
  <rect x="48" y="192" width="16" height="16" fill="#9b7535"/>
  <rect x="64" y="192" width="16" height="16" fill="#9b7535"/>
  <rect x="80" y="192" width="16" height="16" fill="#9b7535"/>
  <rect x="96" y="192" width="16" height="16" fill="#9b7535"/>
  <rect x="112" y="192" width="16" height="16" fill="#9b7535"/>
  <rect x="128" y="192" width="16" height="16" fill="#c49a3c"/>
  <rect x="144" y="192" width="16" height="16" fill="#1c1008"/>
  <rect x="176" y="192" width="16" height="16" fill="#aaaaaa"/>
  <rect x="192" y="192" width="16" height="16" fill="#c8e8f5"/>
  <rect x="208" y="192" width="16" height="16" fill="#c8e8f5"/>
  <rect x="224" y="192" width="16" height="16" fill="#aaaaaa"/>
  <rect x="32" y="208" width="16" height="16" fill="#1c1008"/>
  <rect x="48" y="208" width="16" height="16" fill="#9b7535"/>
  <rect x="64" y="208" width="16" height="16" fill="#9b7535"/>
  <rect x="80" y="208" width="16" height="16" fill="#9b7535"/>
  <rect x="96" y="208" width="16" height="16" fill="#9b7535"/>
  <rect x="112" y="208" width="16" height="16" fill="#9b7535"/>
  <rect x="128" y="208" width="16" height="16" fill="#c49a3c"/>
  <rect x="144" y="208" width="16" height="16" fill="#1c1008"/>
  <rect x="176" y="208" width="16" height="16" fill="#aaaaaa"/>
  <rect x="192" y="208" width="16" height="16" fill="#c8e8f5"/>
  <rect x="208" y="208" width="16" height="16" fill="#c8e8f5"/>
  <rect x="224" y="208" width="16" height="16" fill="#aaaaaa"/>
  <rect x="32" y="224" width="16" height="16" fill="#1c1008"/>
  <rect x="48" y="224" width="16" height="16" fill="#9b7535"/>
  <rect x="64" y="224" width="16" height="16" fill="#9b7535"/>
  <rect x="80" y="224" width="16" height="16" fill="#9b7535"/>
  <rect x="96" y="224" width="16" height="16" fill="#9b7535"/>
  <rect x="112" y="224" width="16" height="16" fill="#c49a3c"/>
  <rect x="128" y="224" width="16" height="16" fill="#9b7535"/>
  <rect x="144" y="224" width="16" height="16" fill="#1c1008"/>
  <rect x="192" y="224" width="16" height="16" fill="#aaaaaa"/>
  <rect x="208" y="224" width="16" height="16" fill="#aaaaaa"/>
  <rect x="48" y="240" width="16" height="16" fill="#1c1008"/>
  <rect x="64" y="240" width="16" height="16" fill="#9b7535"/>
  <rect x="80" y="240" width="16" height="16" fill="#9b7535"/>
  <rect x="96" y="240" width="16" height="16" fill="#9b7535"/>
  <rect x="112" y="240" width="16" height="16" fill="#c49a3c"/>
  <rect x="128" y="240" width="16" height="16" fill="#9b7535"/>
  <rect x="144" y="240" width="16" height="16" fill="#1c1008"/>
  <rect x="64" y="256" width="16" height="16" fill="#1c1008"/>
  <rect x="80" y="256" width="16" height="16" fill="#3b4f5c"/>
  <rect x="96" y="256" width="16" height="16" fill="#3b4f5c"/>
  <rect x="112" y="256" width="16" height="16" fill="#3b4f5c"/>
  <rect x="128" y="256" width="16" height="16" fill="#3b4f5c"/>
  <rect x="144" y="256" width="16" height="16" fill="#3b4f5c"/>
  <rect x="160" y="256" width="16" height="16" fill="#3b4f5c"/>
  <rect x="176" y="256" width="16" height="16" fill="#1c1008"/>
  <rect x="64" y="272" width="16" height="16" fill="#1c1008"/>
  <rect x="80" y="272" width="16" height="16" fill="#3b4f5c"/>
  <rect x="96" y="272" width="16" height="16" fill="#2c3a45"/>
  <rect x="112" y="272" width="16" height="16" fill="#3b4f5c"/>
  <rect x="128" y="272" width="16" height="16" fill="#2c3a45"/>
  <rect x="144" y="272" width="16" height="16" fill="#3b4f5c"/>
  <rect x="160" y="272" width="16" height="16" fill="#3b4f5c"/>
  <rect x="176" y="272" width="16" height="16" fill="#1c1008"/>
  <rect x="64" y="288" width="16" height="16" fill="#1c1008"/>
  <rect x="80" y="288" width="16" height="16" fill="#3b4f5c"/>
  <rect x="96" y="288" width="16" height="16" fill="#3b4f5c"/>
  <rect x="112" y="288" width="16" height="16" fill="#2c3a45"/>
  <rect x="128" y="288" width="16" height="16" fill="#3b4f5c"/>
  <rect x="144" y="288" width="16" height="16" fill="#2c3a45"/>
  <rect x="160" y="288" width="16" height="16" fill="#3b4f5c"/>
  <rect x="176" y="288" width="16" height="16" fill="#1c1008"/>
  <rect x="64" y="304" width="16" height="16" fill="#1c1008"/>
  <rect x="80" y="304" width="16" height="16" fill="#3b4f5c"/>
  <rect x="96" y="304" width="16" height="16" fill="#1c1008"/>
  <rect x="144" y="304" width="16" height="16" fill="#1c1008"/>
  <rect x="160" y="304" width="16" height="16" fill="#3b4f5c"/>
  <rect x="176" y="304" width="16" height="16" fill="#1c1008"/>
  <rect x="64" y="320" width="16" height="16" fill="#1c1008"/>
  <rect x="80" y="320" width="16" height="16" fill="#151515"/>
  <rect x="96" y="320" width="16" height="16" fill="#1c1008"/>
  <rect x="144" y="320" width="16" height="16" fill="#1c1008"/>
  <rect x="160" y="320" width="16" height="16" fill="#151515"/>
  <rect x="176" y="320" width="16" height="16" fill="#1c1008"/>
  <rect x="64" y="336" width="16" height="16" fill="#1c1008"/>
  <rect x="80" y="336" width="16" height="16" fill="#151515"/>
  <rect x="96" y="336" width="16" height="16" fill="#1c1008"/>
  <rect x="144" y="336" width="16" height="16" fill="#1c1008"/>
  <rect x="160" y="336" width="16" height="16" fill="#151515"/>
  <rect x="176" y="336" width="16" height="16" fill="#1c1008"/>
  <rect x="48" y="352" width="16" height="16" fill="#1c1008"/>
  <rect x="64" y="352" width="16" height="16" fill="#151515"/>
  <rect x="80" y="352" width="16" height="16" fill="#151515"/>
  <rect x="96" y="352" width="16" height="16" fill="#1c1008"/>
  <rect x="144" y="352" width="16" height="16" fill="#1c1008"/>
  <rect x="160" y="352" width="16" height="16" fill="#151515"/>
  <rect x="176" y="352" width="16" height="16" fill="#151515"/>
  <rect x="192" y="352" width="16" height="16" fill="#1c1008"/>
</svg>
